<?xml version="1.0" encoding="utf-8"?>
<!-- Generator: Adobe Illustrator 16.0.3, SVG Export Plug-In . SVG Version: 6.00 Build 0)  -->
<!DOCTYPE svg PUBLIC "-//W3C//DTD SVG 1.1//EN" "http://www.w3.org/Graphics/SVG/1.1/DTD/svg11.dtd">
<svg version="1.1" xmlns="http://www.w3.org/2000/svg" xmlns:xlink="http://www.w3.org/1999/xlink" x="0px" y="0px"
	 width="904.455px" height="371.98px" viewBox="0 0 904.455 371.98" enable-background="new 0 0 904.455 371.98"
	 xml:space="preserve">
<g id="Capa_1">
	<path fill="#FFFFFF" stroke="#000000" stroke-miterlimit="10" d="M566.089,297.904"/>
	<path fill="#FFFFFF" stroke="#000000" stroke-miterlimit="10" d="M682.128,325.045h26.594v-27.141
		c76.922,0,95.912-155.737,95.912-155.737c110.676,0,111.729,215.029-5.986,215.029l-778.824,0.525v-1.975v-57.315l22.188-0.265
		v27.144"/>
	<polyline fill="#FFFFFF" stroke="#000000" stroke-miterlimit="10" points="642.511,325.045 669.105,325.045 669.105,297.904 
		682.63,297.904 682.63,325.045 	"/>
	<polyline fill="#FFFFFF" stroke="#000000" stroke-miterlimit="10" points="605.207,325.045 631.798,325.045 631.798,297.904 
		643.011,297.904 643.011,325.045 	"/>
	<polyline fill="#FFFFFF" stroke="#000000" stroke-miterlimit="10" points="565.589,325.045 592.183,325.045 592.183,297.904 
		605.707,297.904 605.707,325.045 	"/>
	<path fill="#FFFFFF" stroke="#000000" stroke-miterlimit="10" d="M605.707,298.431"/>
	<path fill="#FFFFFF" stroke="#000000" stroke-miterlimit="10" d="M592.183,298.431"/>
	<path fill="#FFFFFF" stroke="#000000" stroke-miterlimit="10" d="M605.707,298.431"/>
	<path fill="#FFFFFF" stroke="#000000" stroke-miterlimit="10" d="M592.183,298.431"/>
	<path fill="#FFFFFF" stroke="#000000" stroke-miterlimit="10" d="M42.012,298.167"/>
	<path fill="#FFFFFF" stroke="#000000" stroke-miterlimit="10" d="M859.476,225.872"/>
	<polyline fill="#FFFFFF" stroke="#000000" stroke-miterlimit="10" points="158.051,325.311 184.645,325.311 184.645,298.167 
		566.089,297.904 566.089,325.045 	"/>
	<polyline fill="#FFFFFF" stroke="#000000" stroke-miterlimit="10" points="118.434,325.311 145.027,325.311 145.027,298.167 
		158.551,298.167 158.551,325.311 	"/>
	<polyline fill="#FFFFFF" stroke="#000000" stroke-miterlimit="10" points="81.129,325.311 107.723,325.311 107.723,298.167 
		118.935,298.167 118.935,325.311 	"/>
	<polyline fill="#FFFFFF" stroke="#000000" stroke-miterlimit="10" points="41.512,325.311 68.105,325.311 68.105,298.167 
		81.629,298.167 81.629,325.311 	"/>
	<path fill="#FFFFFF" stroke="#000000" stroke-miterlimit="10" d="M81.629,298.694"/>
	<path fill="#FFFFFF" stroke="#000000" stroke-miterlimit="10" d="M68.105,298.694"/>
	<path fill="#FFFFFF" stroke="#000000" stroke-miterlimit="10" d="M81.629,298.694"/>
	<path fill="#FFFFFF" stroke="#000000" stroke-miterlimit="10" d="M68.105,298.694"/>
	<polyline fill="#FFFFFF" stroke="#000000" stroke-miterlimit="10" points="796.353,184.592 32.57,184.592 19.824,298.431 	"/>
</g>
<g id="Capa_7">
	<polygon fill="#C1BFBF" points="796.353,184.591 32.57,184.591 19.824,298.431 24.73,339.248 792.156,330.355 	"/>
	<path fill="#CCCCCC" stroke="#000000" stroke-miterlimit="10" d="M1973.171,764.412"/>
</g>
<g id="Capa_5">
	<path fill="#666666" d="M566.089,297.904"/>
	<path fill="#666666" d="M682.128,325.045h26.594v-27.141c76.922,0,95.912-155.737,95.912-155.737
		c110.676,0,111.729,215.029-5.986,215.029l-778.824,0.529v-1.977v-57.316l22.188-0.266v27.144"/>
	<polyline fill="#666666" points="642.511,325.045 669.105,325.045 669.105,297.904 682.63,297.904 682.63,325.045 	"/>
	<polyline fill="#666666" points="605.207,325.045 631.798,325.045 631.798,297.904 643.011,297.904 643.011,325.045 	"/>
	<polyline fill="#666666" points="565.589,325.045 592.183,325.045 592.183,297.904 605.707,297.904 605.707,325.045 	"/>
	<path fill="#666666" d="M605.707,298.432"/>
	<path fill="#666666" d="M592.183,298.432"/>
	<path fill="#666666" d="M605.707,298.432"/>
	<path fill="#666666" d="M592.183,298.432"/>
	<path fill="#666666" d="M42.012,298.167"/>
	<polyline fill="#666666" points="158.051,325.311 184.645,325.311 184.645,298.167 566.089,297.904 566.089,325.045 	"/>
	<polyline fill="#666666" points="118.434,325.311 145.027,325.311 145.027,298.167 158.551,298.167 158.551,325.311 	"/>
	<polyline fill="#666666" points="81.129,325.311 107.723,325.311 107.723,298.167 118.935,298.167 118.935,325.311 	"/>
	<polyline fill="#666666" points="41.512,325.311 68.105,325.311 68.105,298.167 81.629,298.167 81.629,325.311 	"/>
	<path fill="#666666" d="M81.629,298.694"/>
	<path fill="#666666" d="M68.105,298.694"/>
	<path fill="#666666" d="M81.629,298.694"/>
	<path fill="#666666" d="M68.105,298.694"/>
	<path fill="#666666" d="M19.824,298.432"/>
	<path fill="#666666" d="M796.353,184.592"/>
</g>
<g id="Capa_2">
	<path fill="#808080" d="M19.824,346.955h790.91c120.953-74.312,3.951-190.522,3.951-190.522s46.381,124.379-87.486,173.922H19.824
		V346.955z"/>
</g>
<g id="Capa_4">
</g>
<g id="Capa_6">
</g>
<g id="Capa_3">
</g>
<g id="Capa_8">
</g>
<g id="Capa_9">
</g>
<g id="Capa_10">
	<polyline fill="#BE894A" points="671.48,136.806 702.683,136.806 704.492,144.496 720.32,151.957 729.591,148.791 752.431,170.498 
		748.361,178.639 754.691,194.92 763.734,197.862 763.734,231.1 754.916,233.136 748.132,248.961 752.431,257.556 730.496,279.715 
		722.13,275.419 705.396,282.428 702.912,291.474 671.48,291.474 668.994,282.656 652.033,275.419 643.894,279.49 621.507,257.33 
		625.578,249.867 619.474,233.36 609.298,230.423 609.298,198.086 618.117,196.729 625.351,178.639 621.054,170.498 642.867,148.9 
		651.58,152.861 668.765,145.625 	"/>
	<polyline fill="#BE894A" points="504.861,136.806 536.064,136.806 537.875,144.496 553.703,151.957 562.974,148.791 
		585.812,170.498 581.744,178.639 588.072,194.92 597.117,197.862 597.117,231.1 588.298,233.136 581.513,248.961 585.812,257.556 
		563.876,279.715 555.513,275.419 538.779,282.428 536.292,291.474 504.861,291.474 502.375,282.656 485.416,275.419 
		477.275,279.49 454.89,257.33 458.96,249.867 452.855,233.36 442.679,230.423 442.679,198.086 451.498,196.729 458.734,178.639 
		454.437,170.498 476.25,148.9 484.962,152.861 502.148,145.625 	"/>
	<polyline fill="#BE894A" points="338.57,136.806 369.773,136.806 371.583,144.496 387.411,151.957 396.683,148.791 
		419.521,170.498 415.453,178.639 421.781,194.92 430.826,197.862 430.826,231.1 422.008,233.136 415.223,248.961 419.521,257.556 
		397.586,279.715 389.222,275.419 372.487,282.428 370.002,291.474 338.57,291.474 336.084,282.656 319.125,275.419 310.984,279.49 
		288.599,257.33 292.67,249.867 286.564,233.36 276.389,230.423 276.389,198.086 285.207,196.729 292.442,178.639 288.146,170.498 
		309.959,148.9 318.672,152.861 335.857,145.625 	"/>
	<polyline fill="#BE894A" points="171.952,136.806 203.156,136.806 204.965,144.496 220.793,151.957 230.064,148.791 
		252.903,170.498 248.834,178.639 255.164,194.92 264.207,197.862 264.207,231.1 255.389,233.136 248.605,248.961 252.903,257.556 
		230.969,279.715 222.604,275.419 205.869,282.428 203.384,291.474 171.952,291.474 169.466,282.656 152.506,275.419 
		144.367,279.49 121.98,257.33 126.051,249.867 119.947,233.36 109.771,230.423 109.771,198.086 118.589,196.729 125.824,178.639 
		121.527,170.498 143.34,148.9 152.053,152.861 169.238,145.625 	"/>
</g>
<g id="Capa_11">
	<g>
		<path fill="#A0642F" stroke="#000000" stroke-width="0.5" stroke-miterlimit="10" d="M717.613,219.31l9.113-11.025
			c24.156-30.135-37.08-81.253-80.807-28.871c-58.092,69.592,42.453,123.071,85.566,71.427
			C750.554,227.995,713.32,224.453,717.613,219.31z M640.105,212.529c0-6.111,4.955-11.067,11.068-11.067
			c6.111,0,11.066,4.956,11.066,11.067c0,6.113-4.955,11.068-11.066,11.068C645.06,223.597,640.105,218.642,640.105,212.529z
			 M656.431,255.984c-6.111,0-11.066-4.955-11.066-11.067c0-6.113,4.955-11.067,11.066-11.067c6.113,0,11.068,4.954,11.068,11.067
			C667.5,251.029,662.544,255.984,656.431,255.984z M667.5,197.371c-6.113,0-11.068-4.955-11.068-11.068
			c0-6.111,4.955-11.066,11.068-11.066c6.111,0,11.068,4.955,11.068,11.066C678.568,192.416,673.611,197.371,667.5,197.371z
			 M702.408,186.302c-6.113,0-11.068-4.955-11.068-11.066c0-6.113,4.955-11.068,11.068-11.068c6.111,0,11.066,4.955,11.066,11.068
			C713.474,181.347,708.519,186.302,702.408,186.302z"/>
		<path fill="#452F27" stroke="#000000" stroke-width="0.5" stroke-miterlimit="10" d="M661.435,204.477
			c-8.164-8.163-0.209-14.025,6.908-6.908s45.213,38.097,45.213,38.097c11.199,11.199-1.465,20.305-10.885,10.885
			C693.251,237.132,661.435,204.477,661.435,204.477z"/>
		<path fill="#63300F" stroke="#000000" stroke-width="0.5" stroke-miterlimit="10" d="M638.66,170.355
			c0,0,15.693,3.03,21.018,16.734c2.404,6.186-5.184,13.309-14.152,5.799C636.558,185.376,627.894,165.537,638.66,170.355z"/>
	</g>
	<path fill="#808080" stroke="#000000" stroke-width="0.5" stroke-miterlimit="10" d="M387.606,200.94l-13.165,3.94l-11.195-11.91
		l5.914-13.861l13.246-4.142c-3.449-1.754-7.351-2.744-11.484-2.744c-13.997,0-25.345,11.348-25.345,25.345
		c0,13.998,11.348,25.345,25.345,25.345c13.998,0,25.346-11.347,25.346-25.345c0-1.816-0.193-3.588-0.557-5.297L387.606,200.94z"/>
	<path fill="#FEA621" stroke="#000000" stroke-width="0.5" stroke-miterlimit="10" d="M407.688,186.633l-3.316-8.529l2.131-4.263
		l-11.962-11.369l-4.856,1.658l-8.29-3.907l-0.947-4.028h-16.343l-1.422,4.619l-9.002,3.789l-4.563-2.074l-11.425,11.313
		l2.251,4.263l-3.789,9.475l-4.619,0.711v16.938l5.33,1.538l0.716,1.936l6.432-6.431c-0.612-2.445-0.938-5.004-0.938-7.641
		c0-17.319,14.039-31.359,31.359-31.359s31.359,14.04,31.359,31.359s-14.039,31.361-31.359,31.361c-1.766,0-3.495-0.148-5.18-0.43
		c-1.908,1.929-4.224,4.267-6.807,6.871l0.354,0.151l1.303,4.619h16.463l1.301-4.738l8.766-3.672l4.381,2.252l11.488-11.606
		l-2.251-4.502l3.554-8.289l4.617-1.065v-17.409L407.688,186.633z"/>
	<path fill="#808080" stroke="#000000" stroke-width="0.5" stroke-miterlimit="10" d="M357.078,225.377
		c-6.694,0-12.122-5.376-12.122-12.007c0-1.142,0.161-2.248,0.462-3.292l-0.041-0.043l-35.189,35.187c0,0-4.629,3.79-0.672,8.925
		c3.955,5.135,6.902,6.818,6.902,6.818s3.787,2.862,8.418-1.094c4.553-3.891,34.088-33.821,35.079-34.825
		C359.005,225.262,358.057,225.377,357.078,225.377z M319.498,257.009c-3.377,0-6.115-2.736-6.115-6.114s2.738-6.116,6.115-6.116
		s6.115,2.738,6.115,6.116S322.875,257.009,319.498,257.009z"/>
	<path fill="#A2594D" stroke="#000000" stroke-width="0.2981" stroke-miterlimit="10" d="M575.607,178.698
		c-0.699,34.843-8.328,59.991-19.301,76.123c-1.803,4.4-69.773,6.337-72.846,0.833c-12.107-16.566-20.182-42.521-19.436-76.956"/>
	<path fill="#B85130" stroke="#000000" stroke-width="0.2981" stroke-miterlimit="10" d="M464.025,179.772
		c0,40.842,111.795,39.649,111.795,0C575.82,165.164,464.025,166.356,464.025,179.772z"/>
	<polyline fill="#63300F" stroke="#000000" stroke-width="0.2981" stroke-miterlimit="10" points="565.187,173.117 565.187,235.967 
		547.349,253.804 547.349,170.345 	"/>
	<path fill="#F6D18B" stroke="#000000" stroke-width="0.2981" stroke-miterlimit="10" d="M563.226,217.334
		c0,3.843-3.115,6.958-6.957,6.958l0,0c-3.842,0-6.957-3.115-6.957-6.958v-18.88c0-3.842,3.115-6.957,6.957-6.957l0,0
		c3.842,0,6.957,3.115,6.957,6.957V217.334z"/>
	<polyline fill="#63300F" stroke="#000000" stroke-width="0.2981" stroke-miterlimit="10" points="473.185,173.117 473.185,235.967 
		491.521,253.804 491.521,170.345 	"/>
	<path fill="#F6D18B" stroke="#000000" stroke-width="0.2981" stroke-miterlimit="10" d="M489.308,217.334
		c0,3.843-3.113,6.958-6.955,6.958l0,0c-3.842,0-6.957-3.115-6.957-6.958v-18.88c0-3.842,3.115-6.957,6.957-6.957l0,0
		c3.842,0,6.955,3.115,6.955,6.957V217.334z"/>
</g>
<g id="Capa_12">
</g>
<g id="Capa_13">
	<path fill="#A2594D" stroke="#000000" stroke-width="0.8918" stroke-miterlimit="10" d="M391.145,177.14"/>
	<polygon fill="#CCE70B" stroke="#F2F91C" stroke-width="7" stroke-miterlimit="10" points="175.113,228.667 151.617,187.971 
		175.113,147.275 222.105,147.275 245.602,187.971 222.105,228.667 	"/>
	<path fill="#333333" stroke="#000000" stroke-miterlimit="10" d="M163.648,190.21h-26.297c0,0-19.344,1.152-18.91,27.664
		l0.218,11.813c0,0-0.108,11.888,11.899,13.977l37.83,16.806c0,0,8.68,4.903,20.934-2.016c0.085-0.047,0.17-0.097,0.256-0.146
		l28.117-9.795l42.891-32.753c8.549-9.798,3.041-31.6-15.287-17.769c-18.33,13.831-36.514,21.897-36.514,21.897
		s3.405,19.691-11.955,19.787c-15.358,0.097-35.789-21.034-35.789-21.034s-2.753-3.458,1.232-2.497
		c3.984,0.96,29.456,18.248,29.456,18.248s16.765,7.877,12.056-18.152l-32.094-23.244
		C171.691,192.997,164.809,189.731,163.648,190.21z"/>
	<path fill="#333333" d="M216.174,73.995c0,57.221-49.393,57.205-49.393,0C166.781,64.495,216.174,63.964,216.174,73.995z"/>
	<path fill="#FFFFFF" d="M213.068,65.64h3.574c0-20.358-10.796-31.352-22.387-32.892v25.557
		C202.36,58.834,209.278,61.659,213.068,65.64z"/>
	<path fill="#333333" d="M189.478,58.26V32.647c-11.882,1.072-23.165,12.037-23.165,32.993h3.574
		C173.799,61.532,181.039,58.656,189.478,58.26z"/>
	<text transform="matrix(1 0 0 1 682.6304 116.9038)" fill="#FFFFFF" font-family="'Bombardier'" font-size="100">P</text>
	<text transform="matrix(1 0 0 1 507.9585 116.9038)" fill="#FFFFFF" font-family="'Bombardier'" font-size="100">I</text>
	<text transform="matrix(1 0 0 1 338.959 116.9038)" fill="#FFFFFF" font-family="'Bombardier'" font-size="100">B</text>
</g>
<g id="Capa_14">
</g>
<g id="Capa_15">
</g>
</svg>
