<?xml version="1.0" encoding="utf-8"?>
<!-- Generator: Adobe Illustrator 16.0.3, SVG Export Plug-In . SVG Version: 6.00 Build 0)  -->
<!DOCTYPE svg PUBLIC "-//W3C//DTD SVG 1.1//EN" "http://www.w3.org/Graphics/SVG/1.1/DTD/svg11.dtd">
<svg version="1.1" xmlns="http://www.w3.org/2000/svg" xmlns:xlink="http://www.w3.org/1999/xlink" x="0px" y="0px"
	 width="352.482px" height="397.48px" viewBox="0 0 352.482 397.48" enable-background="new 0 0 352.482 397.48"
	 xml:space="preserve">
<g id="Capa_4">
	<polygon fill="#FAE3A1" points="18.067,220.343 33.642,233.677 48.178,140.09 70.4,55.023 14.025,122.273 	"/>
	<polygon fill="#FAE3A1" points="70.692,54.266 115.65,55.648 149.733,18.398 	"/>
	<polygon fill="#FAE3A1" points="298.65,258.898 338.65,216.148 338.65,285.065 299.813,330.123 	"/>
	<polygon fill="#FAE3A1" points="112.15,331.148 110.4,377.398 50.384,310.812 55.65,303.398 	"/>
	<polygon fill="#FAE3A1" points="18.686,230.945 55.65,303.398 49.871,310.242 19.067,276.065 	"/>
	<polygon fill="#FAE3A1" points="302.587,138.508 308.4,106.89 315.603,116.652 332.712,199.075 	"/>
	<path fill="#FAE3A1" d="M302.587,137.273"/>
	<polygon fill="#FAE3A1" points="108.638,307.347 118.318,303.398 18.067,220.343 66.964,291.231 	"/>
</g>
<g id="Capa_7">
	<polygon fill="#8B6C8C" points="335.105,202.565 338.65,204.898 338.734,217.232 298.65,258.898 202.362,296.972 112.15,331.148 
		55.65,303.398 18.067,229.732 19.448,221.99 66.964,291.231 108.638,307.347 195.337,282.777 289.149,241.508 	"/>
</g>
<g id="Capa_8">
	<path fill="#C48CA5" d="M298.65,258.898c0,0,10,18.25,36.789,29.892l-35.343,39.858L298.65,258.898z"/>
</g>
<g id="Capa_6">
	<polyline fill="#F3BBA8" points="149.921,18.508 234.337,74.758 302.587,137.273 308.4,106.89 264.944,48.744 190.4,18.398 
		149.921,17.065 	"/>
	<polygon fill="#F3BBA8" points="302.587,138.508 287.254,193.841 289.587,241.508 334.254,202.175 	"/>
</g>
<g id="Capa_5">
	<polygon fill="#C78DA5" points="70.692,55.023 49.045,139.726 130.15,98.398 234.15,74.648 149.733,18.398 115.65,55.648 	"/>
	<path fill="#C78DA5" d="M200.65,297.648"/>
	<polygon fill="#C78DA5" points="195.337,282.508 119.358,304.255 67.362,261.986 33.642,233.677 49.045,139.726 108.638,217.68 	
		"/>
	<polygon fill="#C78DA5" points="298.65,258.898 299.813,330.123 203.4,386.732 110.4,377.398 112.15,331.148 200.65,297.648 	"/>
	<polygon fill="#C78DA5" points="19.257,221.362 119.358,304.255 108.638,307.347 66.964,292.731 	"/>
</g>
<g id="Capa_3">
	<path fill="none" stroke="#000000" stroke-width="0.5" stroke-miterlimit="10" d="M234.15,74.648"/>
	<polygon fill="#A16FA0" points="48.756,140.019 130.15,98.398 234.15,74.648 302.4,138.398 287.242,197.308 289.4,241.398 
		195.15,282.398 108.9,217.398 	"/>
</g>
<g id="Capa_2">
	<g>
		<g>
			<path d="M337.324,283.739c-7.547,8.757-15.094,17.513-22.642,26.269c-4.439,5.15-8.879,10.301-13.318,15.452
				c-0.917,1.063-1.833,2.127-2.75,3.19c0.329-0.382-0.267,0.159-0.933,0.55c-23.154,13.595-46.309,27.19-69.463,40.785
				c-8.426,4.947-16.851,9.895-25.276,14.842c-1.169,0.686,1.173,0.102-0.033-0.019c-1.373-0.139-2.746-0.276-4.12-0.414
				c-5.635-0.565-11.27-1.131-16.905-1.696c-15.791-1.585-31.582-3.17-47.372-4.755c-6.009-0.604-12.017-1.206-18.025-1.81
				c-1.583-0.158-3.166-0.317-4.749-0.477c-1.979-0.198-0.646-0.288-0.114,0.301c-30.408-33.737-60.815-67.474-91.223-101.211
				c0.865,0.959,0.553,1.793,0.521,0.355c-0.019-0.885-0.038-1.771-0.057-2.655c-0.071-3.297-0.142-6.594-0.213-9.89
				c-0.17-7.88-0.34-15.76-0.51-23.64c-0.136-6.313-0.337-12.607-0.594-18.916c-1.172-28.865-2.345-57.73-3.518-86.596
				c-0.134-3.302-0.268-6.605-0.402-9.907c-0.05-1.24-1.233,1.7-0.119,0.35c0.988-1.197,1.975-2.393,2.962-3.59
				c8.942-10.835,17.883-21.67,26.825-32.505C53.529,77.774,61.764,67.795,70,57.816c1.762-2.136,1.02-1.65,3.222-2.65
				c4.512-2.047,9.024-4.095,13.536-6.143c14.362-6.517,28.723-13.034,43.085-19.551c5.438-2.468,10.876-4.936,16.315-7.403
				c1.289-0.585,2.578-1.17,3.867-1.755c1.293-0.587-1.229-0.042,1.193-0.042c12.894,0,25.787,0,38.681,0
				c0.464,0-0.092-0.105,1.154,0.401c1.739,0.708,3.479,1.416,5.217,2.124c6.075,2.473,12.15,4.946,18.225,7.419
				c14.021,5.708,28.044,11.416,42.065,17.124c2.887,1.175,5.773,2.351,8.66,3.525c-1.82-0.741-0.906-0.585,0.128,0.816
				c1.246,1.688,2.492,3.377,3.738,5.065c15.184,20.579,30.368,41.157,45.553,61.735c-0.072-0.097-0.016-0.105,0.196,0.903
				c0.368,1.757,0.736,3.514,1.104,5.271c1.304,6.224,2.607,12.447,3.911,18.671c3.19,15.23,6.381,30.46,9.571,45.69
				c0.882,4.208,1.764,8.417,2.645,12.625c0.187,0.888,0.317,1.684,1.252,2.134c1.396,0.673,2.792,1.346,4.188,2.018
				c-0.934-0.45-0.731-2.342-0.731-0.756c0,11.887,0,23.773,0,35.661c0,14.787,0,29.575,0,44.363c0,2.418,3.75,2.418,3.75,0
				c0-26.931,0-53.861,0-80.792c0-0.619-0.348-1.339-0.929-1.619c-1.289-0.621-2.578-1.242-3.867-1.863
				c-1.456-0.702,0.297,1.498,0.069,0.411c-0.282-1.346-0.563-2.692-0.846-4.038c-1.199-5.725-2.398-11.449-3.598-17.173
				c-3.223-15.384-6.445-30.768-9.668-46.151c-1.019-4.861-2.037-9.722-3.056-14.583c-0.377-1.8-0.753-2.662-1.847-4.143
				c-7.542-10.222-15.085-20.444-22.627-30.667c-8.133-11.021-16.266-22.043-24.398-33.065c-1.094-1.483-2.13-3.556-3.892-4.273
				c-3.631-1.479-7.263-2.957-10.895-4.435c-14.297-5.82-28.595-11.64-42.892-17.46c-5.605-2.282-11.21-4.563-16.815-6.845
				c-1.994-0.812-3.804-1.845-5.969-1.845c-12.93,0-25.859,0-38.789,0c-2.034,0-3.989,1.285-5.803,2.108
				c-5.316,2.413-10.633,4.825-15.95,7.238c-14.383,6.526-28.766,13.053-43.148,19.58c-4.655,2.112-9.31,4.225-13.965,6.337
				c-1.667,0.756-2.499,1.203-3.651,2.599c-17.049,20.66-34.099,41.32-51.148,61.98c-1.35,1.635-4.326,4.051-4.917,6.202
				c-0.554,2.013,0.111,4.868,0.193,6.903c0.548,13.495,1.096,26.989,1.645,40.483c0.866,21.318,2.059,42.649,2.52,63.979
				c0.293,13.612,0.587,27.224,0.881,40.836c0.042,1.977,0.706,2.766,1.973,4.171c2.56,2.84,5.12,5.68,7.679,8.521
				c20.178,22.387,40.356,44.774,60.534,67.162c6.776,7.518,13.552,15.036,20.329,22.554c3.384,3.755,10.187,2.847,14.917,3.321
				c26.572,2.667,53.144,5.334,79.716,8.001c1.653,0.166,2.527-0.437,3.932-1.261c3.759-2.207,7.519-4.414,11.277-6.622
				c13.11-7.697,26.221-15.395,39.331-23.093c10.646-6.251,21.292-12.502,31.938-18.752c3.76-2.208,9.785-4.347,12.695-7.724
				c12.83-14.885,25.661-29.771,38.491-44.655C341.546,284.569,338.906,281.905,337.324,283.739z"/>
		</g>
	</g>
	<g>
		<g>
			<path d="M263.618,47.418c-10.265,8.635-20.529,17.27-30.794,25.904c-0.764,0.643-0.699,1.998,0,2.651
				c22.75,21.25,45.5,42.5,68.25,63.75c0.938,0.875,2.89,0.64,3.134-0.827c1.75-10.5,3.5-21,5.25-31.5
				c0.395-2.365-3.219-3.378-3.615-0.997c-1.75,10.5-3.5,21-5.25,31.5c1.044-0.276,2.089-0.551,3.134-0.827
				c-22.75-21.25-45.5-42.5-68.25-63.75c0,0.884,0,1.768,0,2.651c10.265-8.635,20.529-17.27,30.794-25.904
				C268.123,48.511,265.456,45.873,263.618,47.418L263.618,47.418z"/>
		</g>
	</g>
	<g>
		<g>
			<path d="M113.842,56.147c4.833,14.25,9.667,28.5,14.5,42.75c0.339,1,1.265,1.547,2.307,1.31
				c34.667-7.917,69.333-15.833,104-23.75c2.357-0.539,1.357-4.154-0.996-3.616c-34.667,7.917-69.334,15.833-104,23.75
				c0.769,0.437,1.538,0.873,2.307,1.31c-4.833-14.25-9.667-28.5-14.5-42.75C116.686,52.873,113.063,53.85,113.842,56.147
				L113.842,56.147z"/>
		</g>
	</g>
	<g>
		<g>
			<path d="M285.379,193.841c0.777,15.889,1.556,31.778,2.333,47.667c0.082,1.68,1.958,2.42,3.201,1.326
				c14.889-13.111,29.777-26.222,44.667-39.333c0.657-0.579,0.652-1.548,0.293-2.272c-10.556-21.222-21.111-42.445-31.667-63.667
				c-0.743-1.494-3.015-1.039-3.427,0.448c-5.111,18.445-10.223,36.889-15.333,55.333c0.769-0.437,1.537-0.873,2.306-1.31
				c-20.777-6.833-41.555-13.667-62.333-20.5c0.459,0.603,0.918,1.206,1.377,1.808c3.139-32.861,6.277-65.722,9.416-98.583
				c0.063-0.668-0.411-1.274-0.929-1.619c-28.139-18.75-56.278-37.5-84.417-56.25c-0.673-0.449-1.731-0.298-2.272,0.293
				c-11.22,12.262-22.44,24.525-33.661,36.788c-1.042,1.138,1.87-0.06,0.205-0.106c-1.422-0.039-2.844-0.078-4.267-0.118
				c-5.222-0.144-10.444-0.289-15.667-0.433c-8.207-0.227-16.413-0.454-24.619-0.68c-0.817-0.022-1.608,0.587-1.808,1.376
				c-7.181,28.406-14.361,56.812-21.542,85.218c-0.418,1.656,1.298,2.856,2.754,2.118c27.097-13.74,54.195-27.479,81.292-41.218
				c-0.918-0.374-1.836-0.747-2.754-1.121c3.984,10.931,7.968,21.862,11.951,32.793c2.344,6.43,4.687,12.86,7.03,19.291
				c0.716,1.965,1.119,5.047,3.412,5.623c24.07,6.038,48.14,12.076,72.209,18.113c0.431,0.108,0.86,0.216,1.291,0.324
				c-0.437-0.769-0.873-1.538-1.31-2.307c-9.861,36.389-19.723,72.777-29.584,109.167c-0.47,1.73,1.316,2.742,2.754,2.117
				c31.417-13.667,62.833-27.333,94.25-41c2.213-0.963,0.302-4.192-1.893-3.238c-31.417,13.667-62.833,27.333-94.25,41
				c0.918,0.706,1.836,1.412,2.754,2.117c9.861-36.389,19.723-72.777,29.584-109.166c0.263-0.969-0.315-2.057-1.31-2.307
				c-23.543-5.906-47.087-11.812-70.631-17.717c-1.101-0.276-2.202-0.553-3.304-0.829c-0.793-0.199,1.462,2.098,1.043,0.949
				c-0.242-0.664-0.484-1.328-0.726-1.992c-2.124-5.828-4.248-11.656-6.373-17.484c-4.389-12.042-8.777-24.084-13.166-36.126
				c-0.039-0.108-0.079-0.216-0.118-0.324c-0.429-1.178-1.614-1.699-2.754-1.121c-27.097,13.74-54.195,27.479-81.292,41.218
				c0.918,0.706,1.836,1.412,2.754,2.118c7.181-28.406,14.361-56.813,21.542-85.218c-0.603,0.459-1.206,0.917-1.808,1.376
				c8.207,0.227,16.413,0.454,24.619,0.68c5.222,0.144,10.444,0.289,15.667,0.433c1.508,0.042,5.143,0.842,6.36-0.488
				c11.338-12.392,22.676-24.783,34.014-37.174c-0.757,0.098-1.515,0.196-2.272,0.293c20.348,13.559,40.697,27.118,61.045,40.677
				c7.758,5.17,15.517,10.339,23.275,15.509c-1.146-0.763-0.755-2.369-0.954-0.283c-0.161,1.683-0.322,3.366-0.482,5.049
				c-0.566,5.926-1.133,11.853-1.698,17.779c-2.371,24.828-4.743,49.655-7.114,74.482c-0.081,0.848,0.638,1.565,1.377,1.808
				c20.777,6.833,41.555,13.667,62.333,20.5c0.972,0.32,2.043-0.362,2.306-1.31c5.111-18.444,10.223-36.889,15.333-55.333
				c-1.142,0.149-2.284,0.298-3.427,0.448c10.556,21.222,21.111,42.445,31.667,63.667c0.098-0.757,0.195-1.515,0.293-2.272
				c-14.889,13.111-29.777,26.222-44.667,39.333c1.067,0.442,2.134,0.884,3.201,1.326c-0.777-15.889-1.556-31.778-2.333-47.667
				C289.011,191.435,285.261,191.423,285.379,193.841L285.379,193.841z"/>
		</g>
	</g>
	<g>
		<g>
			<path d="M47.733,145.94c2.418,0,2.418-3.75,0-3.75S45.315,145.94,47.733,145.94L47.733,145.94z"/>
		</g>
	</g>
	<g>
		<g>
			<path d="M13.733,124.94c2.418,0,2.418-3.75,0-3.75S11.315,124.94,13.733,124.94L13.733,124.94z"/>
		</g>
	</g>
	<g>
		<g>
			<path d="M54.031,302.452c-1.755,2.471-3.51,4.942-5.266,7.413c-1.404,1.977,1.851,3.847,3.238,1.893
				c1.755-2.471,3.51-4.942,5.266-7.413C58.673,302.368,55.418,300.498,54.031,302.452L54.031,302.452z"/>
		</g>
	</g>
	<g>
		<g>
			<path d="M110.275,331.148c-0.583,15.417-1.167,30.833-1.75,46.25c-0.091,2.419,3.659,2.41,3.75,0
				c0.583-15.417,1.167-30.833,1.75-46.25C114.116,328.729,110.366,328.738,110.275,331.148L110.275,331.148z"/>
		</g>
	</g>
	<g>
		<g>
			<path d="M200.488,296.972c0.346,29.92,0.691,59.841,1.037,89.761c0.028,2.417,3.778,2.419,3.75,0
				c-0.346-29.92-0.691-59.841-1.037-89.761C204.209,294.555,200.459,294.553,200.488,296.972L200.488,296.972z"/>
		</g>
	</g>
	<g>
		<g>
			<path d="M296.775,258.898c0.388,23.741,0.775,47.483,1.163,71.225c0.039,2.416,3.789,2.42,3.75,0
				c-0.388-23.741-0.775-47.483-1.163-71.225C300.486,256.482,296.736,256.479,296.775,258.898L296.775,258.898z"/>
		</g>
	</g>
	<g>
		<g>
			<path d="M54.704,305.018c10.159,4.989,20.319,9.979,30.478,14.969c6.521,3.203,13.042,6.406,19.564,9.609
				c1.507,0.74,6.05,4.062,7.955,3.341c23.779-9.001,47.558-18.002,71.337-27.003c16.212-6.137,32.323-12.492,48.444-18.866
				c14.827-5.863,29.654-11.726,44.481-17.589c5.387-2.13,10.773-4.26,16.16-6.39c2.076-0.821,4.535-1.437,6.473-2.571
				c3.304-1.936,6.217-6.532,8.791-9.283c6.097-6.516,12.193-13.031,18.289-19.547c4.193-4.481,8.387-8.963,12.58-13.445
				c2.889-3.087,1.269-10.02,1.269-13.969c0-2.418-3.75-2.418-3.75,0c0,2.932,0,5.864,0,8.796c0,0.733,0,1.466,0,2.199
				c0,1.322-0.271,0.43,0.534-0.43c-0.306,0.327-0.611,0.653-0.917,0.979c-3.908,4.177-7.816,8.354-11.725,12.53
				c-8.99,9.608-17.98,19.217-26.971,28.825c-0.854,0.914,1.3-0.418-0.265,0.201c-1.319,0.521-2.639,1.043-3.958,1.564
				c-5.062,2.002-10.123,4.003-15.185,6.004c-14.725,5.822-29.449,11.645-44.174,17.467
				c-40.553,16.035-81.359,31.371-122.143,46.809c-0.287,0.108,2.011,0.747-0.011-0.246c-1.775-0.872-3.549-1.743-5.324-2.615
				c-6.521-3.203-13.042-6.405-19.564-9.608c-10.159-4.99-20.318-9.979-30.478-14.97C54.434,300.718,52.533,303.951,54.704,305.018
				L54.704,305.018z"/>
		</g>
	</g>
	<g>
		<g>
			<path d="M18.686,223.237c2.418,0,2.418-3.75,0-3.75S16.267,223.237,18.686,223.237L18.686,223.237z"/>
		</g>
	</g>
	<g>
		<g>
			<path d="M149.031,153.702c-13.917,20.917-27.833,41.833-41.75,62.75c-0.614,0.923-0.104,1.98,0.673,2.565
				c28.75,21.667,57.5,43.333,86.25,65c0.149-1.143,0.299-2.285,0.448-3.427c-23.846,6.876-47.691,13.753-71.536,20.629
				c-4.457,1.285-8.914,2.57-13.37,3.855c-1.432,0.413-1.751,0.048-0.719,0.424c-1.741-0.635-3.481-1.27-5.222-1.903
				c-12.078-4.402-24.156-8.806-36.234-13.208c-0.036-0.013-0.073-0.026-0.109-0.039c-2.277-0.83-3.25,2.794-0.997,3.615
				c11.662,4.251,23.324,8.502,34.986,12.753c2.218,0.809,5.723,3.004,8.175,2.297c3.648-1.053,7.297-2.104,10.945-3.157
				c24.912-7.184,49.823-14.367,74.734-21.552c0.114-0.032,0.229-0.065,0.342-0.099c1.691-0.487,1.694-2.487,0.448-3.427
				c-28.75-21.667-57.5-43.333-86.25-65c0.224,0.855,0.449,1.71,0.673,2.565c13.917-20.917,27.833-41.833,41.75-62.75
				C153.613,153.575,150.363,151.699,149.031,153.702L149.031,153.702z"/>
		</g>
	</g>
	<g>
		<g>
			<path d="M36.405,234.771c4.527-31.394,9.054-62.789,13.581-94.183c0.117-0.814-0.054-1.696-0.862-2.118
				c-11.384-5.938-22.769-11.877-34.153-17.816c-2.141-1.117-4.037,2.119-1.893,3.238c11.384,5.938,22.769,11.877,34.153,17.816
				c-0.287-0.706-0.575-1.412-0.862-2.118c-4.527,31.395-9.054,62.789-13.581,94.184C32.448,236.14,36.061,237.158,36.405,234.771
				L36.405,234.771z"/>
		</g>
	</g>
	<g>
		<g>
			<path d="M47.431,141.344c20.048,25.793,40.096,51.587,60.144,77.38c-0.098-0.757-0.196-1.515-0.293-2.272
				c-10.484,17.449-20.968,34.898-31.452,52.348c-1.249,2.078,1.995,3.962,3.238,1.893c10.484-17.449,20.968-34.898,31.452-52.348
				c0.474-0.789,0.228-1.602-0.293-2.272c-20.048-25.793-40.096-51.587-60.144-77.38C48.6,136.785,45.966,139.46,47.431,141.344
				L47.431,141.344z"/>
		</g>
	</g>
	<g>
		<g>
			<path d="M65.638,290.83c-3.771,3.748-7.543,7.495-11.314,11.242c0.981,0.127,1.963,0.253,2.945,0.38
				c-12.528-24.556-25.056-49.11-37.583-73.666c-1.1-2.154-4.334-0.257-3.238,1.893c12.528,24.556,25.056,49.11,37.583,73.666
				c0.556,1.09,2.125,1.194,2.945,0.38c3.771-3.748,7.543-7.495,11.314-11.242C70.007,291.776,67.354,289.125,65.638,290.83
				L65.638,290.83z"/>
		</g>
	</g>
	<g>
		<g>
			<path d="M106.83,307.845c1.171,7.935,2.342,15.868,3.512,23.802c0.352,2.386,3.965,1.368,3.616-0.996
				c-1.171-7.935-2.341-15.868-3.512-23.802C110.094,304.463,106.481,305.48,106.83,307.845L106.83,307.845z"/>
		</g>
	</g>
	<g>
		<g>
			<path d="M193.531,283.345c2.404,4.857,4.808,9.716,7.212,14.573c1.073,2.168,4.307,0.267,3.238-1.893
				c-2.404-4.857-4.808-9.716-7.212-14.573C195.696,279.284,192.462,281.186,193.531,283.345L193.531,283.345z"/>
		</g>
	</g>
	<g>
		<g>
			<path d="M300.269,257.952c-3.083-5.833-6.167-11.667-9.25-17.5c-1.131-2.139-4.367-0.243-3.238,1.893
				c3.083,5.833,6.167,11.667,9.25,17.5C298.162,261.983,301.398,260.088,300.269,257.952L300.269,257.952z"/>
		</g>
	</g>
	<g>
		<g>
			<path d="M120.684,302.929c-33.558-27.631-67.115-55.262-100.673-82.892c-1.53-1.26-4.242,0.394-2.945,2.272
				c16.093,23.29,32.186,46.579,48.278,69.869c1.365,1.975,4.617,0.103,3.238-1.893c-16.093-23.29-32.186-46.579-48.278-69.869
				c-0.982,0.757-1.963,1.515-2.945,2.272c33.558,27.631,67.115,55.262,100.673,82.893
				C119.884,307.104,122.553,304.468,120.684,302.929L120.684,302.929z"/>
		</g>
	</g>
	<g>
		<g>
			<path d="M75.829,268.8c-3.321,7.564-6.643,15.13-9.964,22.694c-0.962,2.192,2.268,4.103,3.238,1.893
				c3.321-7.564,6.643-15.13,9.964-22.694C80.029,268.5,76.799,266.59,75.829,268.8L75.829,268.8z"/>
		</g>
	</g>
</g>
</svg>
