<?xml version="1.0" encoding="utf-8"?>
<!-- Generator: Adobe Illustrator 16.0.3, SVG Export Plug-In . SVG Version: 6.00 Build 0)  -->
<!DOCTYPE svg PUBLIC "-//W3C//DTD SVG 1.1//EN" "http://www.w3.org/Graphics/SVG/1.1/DTD/svg11.dtd">
<svg version="1.1" xmlns="http://www.w3.org/2000/svg" xmlns:xlink="http://www.w3.org/1999/xlink" x="0px" y="0px"
	 width="184.905px" height="182.989px" viewBox="0 0 184.905 182.989" enable-background="new 0 0 184.905 182.989"
	 xml:space="preserve">
<g id="Capa_5">
	<polygon fill="#6D6D6D" points="56.655,172.149 180.155,169.399 171.655,61.149 97.655,13.149 39.905,58.899 9.905,120.899 	"/>
</g>
<g id="Capa_7">
	<path fill="none" stroke="#4D4D4D" stroke-width="7" stroke-miterlimit="10" d="M171.655,75.899c0,0-69.624-3.5-62.157,12.785
		s-7.175,31.042-21.481,30.542c-30.513-1.066-27.407,13.093-45.171,38.345"/>
	<path fill="none" stroke="#4D4D4D" stroke-width="7" stroke-miterlimit="10" d="M172.905,93.656c0,0-41.75,23.744-45.5,44.744
		s-57.882,26.109-57.252,33"/>
	<path fill="none" stroke="#4D4D4D" stroke-width="7" stroke-miterlimit="10" d="M128.315,33.037
		C118.288,83.649,29.511,103.08,20.57,98.858"/>
</g>
<g id="Capa_2">
	<g>
		<path fill="#FFFFFF" d="M133.949,65.739"/>
		<g>
			<path d="M133.949,66.989c1.612,0,1.612-2.5,0-2.5S132.336,66.989,133.949,66.989L133.949,66.989z"/>
		</g>
	</g>
	<g>
		<path fill="#FFFFFF" d="M171.655,61.149"/>
		<g>
			<path d="M171.655,62.399c1.612,0,1.612-2.5,0-2.5S170.042,62.399,171.655,62.399L171.655,62.399z"/>
		</g>
	</g>
	<g>
		<path fill="#FFFFFF" d="M97.655,13.149"/>
		<g>
			<path d="M97.655,14.399c1.612,0,1.612-2.5,0-2.5S96.042,14.399,97.655,14.399L97.655,14.399z"/>
		</g>
	</g>
	<g>
		<g>
			<path d="M97.024,14.229c20.864,13.534,41.729,27.068,62.594,40.602c3.545,2.299,7.09,4.599,10.635,6.898
				c1.453,0.942,0.149-0.621,0.176-0.28c0.088,1.123,0.177,2.246,0.265,3.369c0.972,12.377,1.943,24.754,2.916,37.131
				c1.765,22.483,3.53,44.967,5.296,67.45c0.417-0.417,0.833-0.833,1.25-1.25c-22.851,0.514-45.701,1.028-68.552,1.542
				c-14.321,0.322-28.642,0.645-42.963,0.967c-3.73,0.083-7.461,0.167-11.192,0.251c-1.517,0.034-1.286-0.381-0.597,0.385
				c-0.756-0.841-1.511-1.683-2.267-2.524c-9.53-10.609-19.061-21.219-28.591-31.829c-4.202-4.678-8.404-9.355-12.605-14.034
				c-0.829-0.922-1.658-1.845-2.486-2.768c-0.494-0.55-0.227,2.028,0.212,1.121c0.269-0.555,0.538-1.111,0.806-1.666
				c5.973-12.345,11.946-24.689,17.919-37.034c2.92-6.034,5.84-12.069,8.76-18.104c1.038-2.144,1.818-4.381,3.046-5.354
				C60.61,44.081,79.574,29.057,98.539,14.033c1.264-1.001-0.519-2.757-1.768-1.768C78.051,27.096,59.33,41.926,40.61,56.757
				c-1.666,1.32-2.128,2.223-3.073,4.176c-2.6,5.373-5.2,10.746-7.8,16.119c-6.333,13.089-12.667,26.177-19,39.266
				c-0.637,1.317-1.274,2.634-1.912,3.951c-0.258,0.533-0.206,1.068,0.195,1.515c15.292,17.024,30.584,34.048,45.876,51.072
				c0.935,1.041,3.079,0.543,4.313,0.515c4.483-0.101,8.965-0.202,13.448-0.302c14.971-0.337,29.941-0.674,44.912-1.011
				c20.861-0.469,41.724-0.939,62.585-1.408c0.64-0.015,1.305-0.559,1.25-1.25c-1.891-24.079-3.781-48.158-5.672-72.237
				c-0.892-11.353-1.783-22.705-2.675-34.057c-0.13-1.654-0.081-2.587-1.543-3.536c-3.546-2.299-7.091-4.599-10.636-6.898
				C140.015,39.138,119.15,25.604,98.286,12.07C96.929,11.19,95.677,13.355,97.024,14.229z"/>
		</g>
	</g>
	<g>
		<g>
			<path d="M181.234,168.769c-9.476-21.352-18.951-42.704-28.427-64.056c-5.461-12.306-10.922-24.612-16.384-36.918
				c-2.462-5.548-4.901-9.574-8.472-14.55c-9.739-13.575-19.479-27.151-29.218-40.727c-0.931-1.297-3.1-0.051-2.158,1.262
				c6.811,9.493,13.621,18.986,20.432,28.479c3.925,5.472,7.851,10.943,11.775,16.415c1.04,1.449,2.101,2.762,2.82,4.383
				c10.729,24.179,21.46,48.357,32.19,72.536c5.094,11.479,10.188,22.958,15.282,34.437
				C179.728,171.501,181.882,170.228,181.234,168.769L181.234,168.769z"/>
		</g>
	</g>
	<g>
		<g>
			<path d="M171.655,59.899c-44.002,0.1-87.948-0.929-131.942-1.854c-0.887-0.019-1.322,0.807-1.206,1.583
				c5.647,37.618,11.295,75.235,16.942,112.854c0.239,1.59,2.647,0.912,2.411-0.665c-5.647-37.618-11.295-75.235-16.942-112.854
				c-0.402,0.528-0.804,1.055-1.206,1.583c43.994,0.925,87.94,1.953,131.942,1.854C173.267,62.396,173.267,59.896,171.655,59.899
				L171.655,59.899z"/>
		</g>
	</g>
	<g>
		<g>
			<path d="M57.136,45.871c-1.098-4.256-0.677-9.098,3.214-11.79c2.92-2.021,6.609-1.322,8.406,1.738
				c0.815,1.389,2.977,0.132,2.158-1.262c-2.457-4.185-7.263-5.143-11.426-2.881c-5.313,2.887-6.13,9.561-4.764,14.86
				C55.127,48.096,57.539,47.434,57.136,45.871L57.136,45.871z"/>
		</g>
	</g>
	<g>
		<g>
			<path d="M58.702,101.486c-3.837-2.609-7.541-6.044-9.738-10.16c-5.043-9.447,11.874-13.686,18.429-12.294
				c12.674,2.691,2.073,24.075-8.99,22.329c-1.577-0.249-2.254,2.16-0.665,2.411c7.649,1.207,13.583-4.043,16.412-10.752
				c2.588-6.136,1.412-13.83-5.459-16.223c-7.443-2.592-22.904,1.898-23.156,11.178c-0.175,6.457,7.096,12.4,11.906,15.671
				C58.778,104.555,60.027,102.387,58.702,101.486z"/>
		</g>
	</g>
	<g>
		<g>
			<path d="M78.238,112.649c-2.038-0.054-4.382-0.633-5.845-2.115c-2.934-2.972,1.317-9.096,4.59-9.851
				c3.243-0.749,6.74,1.823,8.105,4.589c2.251,4.561-3.903,6.729-7.183,7.421c-1.577,0.333-0.908,2.743,0.665,2.411
				c4.914-1.037,11.089-4.217,9.033-10.243c-1.447-4.24-6.522-7.441-10.972-6.646c-4.878,0.872-9.335,7.93-7.012,12.625
				c1.517,3.065,5.421,4.222,8.619,4.307C79.852,115.192,79.847,112.692,78.238,112.649z"/>
		</g>
	</g>
	<g>
		<g>
			<path d="M105.277,133.567c-0.472-3.292-0.328-7.786,0.486-11.372c2.153-9.487,10.404-9.774,18.325-6.913
				c4.719,1.704,8.612,5.15,7.064,10.449c-1.196,4.093-4.954,7.424-8.111,10.055c-3.465,2.887-8.796,7.017-13.339,4.378
				c-2.479-1.44-3.243-4.568-4.552-6.896c-0.789-1.405-2.949-0.146-2.158,1.262c1.771,3.154,2.822,6.267,6.135,8.191
				c4.63,2.69,10.125-1.044,13.771-3.685c6.789-4.917,16.192-15.087,7.771-22.836c-6.668-6.135-20.004-8.12-25.385,0.415
				c-3.111,4.936-3.221,12.003-2.417,17.617C103.094,135.822,105.502,135.144,105.277,133.567z"/>
		</g>
	</g>
	<g>
		<g>
			<path d="M141.369,124.486c-2.867-1.23-5.863-3.156-7.385-5.946c-2.72-4.99,5.63-10.315,10.006-9.164
				c3.636,0.957,5.752,5.191,5.838,8.68c0.127,5.173-4.796,6.57-9.09,6.259c-1.609-0.117-1.598,2.384,0,2.5
				c5.765,0.418,11.175-2.029,11.582-8.345c0.315-4.893-3.016-9.992-7.666-11.505c-5.759-1.875-13.586,3.966-13.627,9.889
				c-0.032,4.644,5.31,8.172,9.08,9.791C141.572,127.273,142.846,125.121,141.369,124.486z"/>
		</g>
	</g>
	<g>
		<g>
			<path d="M155.607,82.986c-5.625,3.177-8.412,9.283-5.414,15.268c3.141,6.27,11.948,12.325,18.486,7.316
				c4.419-3.385,6.031-9.853,4.554-15.077c-2.161-7.648-10.628-8.71-17.327-7.632c-1.589,0.256-0.912,2.665,0.664,2.411
				c5.544-0.892,12.222-0.238,14.253,5.886c1.332,4.017-0.063,8.884-2.979,11.847c-5.074,5.16-11.917-0.8-14.988-5.172
				c-3.355-4.778-0.549-10.111,4.013-12.687C158.272,84.353,157.012,82.193,155.607,82.986z"/>
		</g>
	</g>
	<g>
		<g>
			<path d="M140.369,51.486c-2.691-1.455-16.394-9.157-12.764-12.928c3.884-4.033,10.381,0.055,13.188,3.177
				c2.787,3.1,5.303,9.563-1.056,9.58c-1.612,0.004-1.612,2.504,0,2.5c6.349-0.018,7.736-5.129,5.291-10.24
				c-2.664-5.569-8.993-9.989-15.277-8.747c-2.231,0.44-4.836,1.949-5.203,4.381c-0.347,2.3,1.283,4.353,2.738,5.936
				c3.23,3.514,7.645,6.243,11.82,8.5C140.525,54.412,141.788,52.253,140.369,51.486z"/>
		</g>
	</g>
	<g>
		<g>
			<path d="M73.237,49.527c-2.258-0.559-4.544-1.385-6.479-2.691c-4.421-2.986,5.296-6.164,7.358-6.547
				c2.751-0.512,7.458,0.257,8.608,3.291c1.621,4.273-7.905,5.629-10.153,5.948c-1.59,0.226-0.911,2.635,0.665,2.411
				c4.335-0.616,13.064-2.396,12.022-8.572c-0.782-4.636-7.278-6.051-11.084-5.593c-3.575,0.43-13.725,3.993-10.641,9.297
				c1.646,2.831,6.057,4.128,9.038,4.867C74.138,52.326,74.801,49.915,73.237,49.527z"/>
		</g>
	</g>
	<g>
		<g>
			<path d="M89.777,37.233c-0.901-3.125-1.025-7.645,2.107-9.537c2.814-1.7,7.386-0.849,10.161,0.54
				c2.421,1.211,4.182,3.445,5.169,5.93c1.48,3.727,1.825,10.045-1.838,12.741c-5.656,4.162-13.221-6.455-15.726-9.973
				c-0.927-1.301-3.096-0.055-2.159,1.262c3.559,4.997,9.806,13.506,17.089,11.812c4.851-1.129,6.323-7.159,6.109-11.423
				c-0.276-5.513-3.346-11.018-8.648-13.081c-5.768-2.243-13.824-1.529-15.086,5.646c-0.385,2.191-0.207,4.607,0.41,6.748
				C87.812,39.444,90.225,38.786,89.777,37.233z"/>
		</g>
	</g>
	<g>
		<g>
			<path d="M27.738,85.644c-1.281-1.718-2.291-3.704-2.837-5.776c-1.464-5.554,4.429-6.569,8.669-6.627
				c1.611-0.022,1.613-2.522,0-2.5c-5.054,0.069-11.533,1.417-11.396,7.679c0.065,2.986,1.646,6.128,3.405,8.486
				C26.531,88.182,28.703,86.938,27.738,85.644L27.738,85.644z"/>
		</g>
	</g>
	<g>
		<g>
			<path d="M28.494,116.649c0.573,0.074-1.019-0.293-1.327-0.406c-1.3-0.479-2.431-1.417-3.219-2.541
				c-2.739-3.906-0.905-9.756,0.678-13.782c0.744-1.893,2.191-4.728,4.505-4.998c1.907-0.222,3.573,1.238,4.78,2.525
				c3.278,3.498,5.284,8.849,5.243,13.622c-0.052,6.208-5.26,7.037-10.328,5.625c-1.556-0.433-2.216,1.979-0.665,2.411
				c5.115,1.424,11.095,1.12,12.999-4.688c1.593-4.86-0.396-10.753-2.784-15.001c-1.993-3.546-5.833-8.056-10.431-6.781
				c-2.435,0.675-4.035,3.018-5.089,5.153c-1.914,3.877-3.327,8.994-2.534,13.3c0.766,4.155,3.905,7.512,8.171,8.061
				C30.089,119.355,30.07,116.852,28.494,116.649z"/>
		</g>
	</g>
	<g>
		<g>
			<path d="M27.863,131.32c-1.434,0.901-1.714-1.205-1.828-2.292c-0.191-1.842,0.11-3.835,1.068-5.434
				c1.147-1.915,3.474-1.24,3.954,0.754C31.677,126.923,29.835,129.868,27.863,131.32c-1.283,0.945-0.039,3.116,1.262,2.158
				c3.169-2.333,5.441-6.56,4.134-10.532c-1.076-3.267-5.162-3.852-7.518-1.629c-2.294,2.164-2.533,6.198-2.014,9.088
				c0.489,2.723,2.745,4.742,5.398,3.073C30.485,132.623,29.232,130.459,27.863,131.32z"/>
		</g>
	</g>
</g>
<g id="Capa_3">
	<path fill="#E195C8" d="M69.804,35.201c-4.24-7.783-17.547-2.059-13.912,10.986c0.002,0.01,0.005,0.02,0.007,0.029L69.804,35.201z"
		/>
	<path fill="#E195C8" d="M58.04,102.578c0,0-24.007-16.164-2-23.5C84.54,69.578,74.874,105.745,58.04,102.578z"/>
	<path fill="#E195C8" d="M78.207,113.912c0,0-12.667-0.272-6-11.136S97.541,110.078,78.207,113.912z"/>
	<path fill="#E195C8" d="M104.041,133.912c0,0-4-27,17.333-20.833s8.333,20.5-2.5,27.167S105.208,135.745,104.041,133.912"/>
	<path fill="#E195C8" d="M140.707,125.578c0,0-16.299-6.885-3.666-15.833S159.207,127.254,140.707,125.578z"/>
	<path fill="#E195C8" d="M156.207,84.078c0,0-14.499,8,0.834,19.833S182.707,79.411,156.207,84.078z"/>
	<path fill="#E195C8" d="M128.874,36.412c11.167-4.333,23.499,16.5,10.833,16.167C139.707,52.578,117.707,40.745,128.874,36.412"/>
	<path fill="#E195C8" d="M72.874,50.745c0,0-18.5-4.529-1.5-11C82.14,35.647,92.874,48.078,72.874,50.745z"/>
	<path fill="#E195C8" d="M99.54,26.078c17.834,3.667,10,41.333-11,11.5C88.54,37.578,84.247,22.934,99.54,26.078"/>
	<path fill="#E195C8" d="M26.627,86.287c0,0-10.754-14.284,6.912-14.284L26.627,86.287z"/>
	<path fill="#E195C8" d="M28.462,132.412c-4.748,3.269-5.245-10.5,0-11.167S33.566,128.898,28.462,132.412z"/>
	<path fill="#E195C8" d="M21.874,104.983c0,0-3.194,10.366,6.589,12.929c26.359,6.904,1.078-46.667-6.589-13.333"/>
</g>
<g id="Capa_6">
	<g>
		<g>
			<path d="M108.86,114.227c1.251,1.957,2.502,3.915,3.753,5.872c0.812,1.271,1.624,2.541,2.436,3.812
				c0.317,0.497,0.635,0.993,0.952,1.489c0.621,0.972-0.102,0.043,0.549-0.265c-4.374,2.075-8.748,4.15-13.122,6.226
				c-0.728,0.345-0.093,1.423,0.631,1.079c4.388-2.082,8.774-4.163,13.162-6.245c0.3-0.142,0.396-0.586,0.225-0.855
				c-2.502-3.915-5.004-7.829-7.505-11.743C109.507,112.919,108.424,113.546,108.86,114.227L108.86,114.227z"/>
		</g>
	</g>
	<g>
		<g>
			<path d="M119.901,112.656c-1.199,4.277-2.399,8.555-3.599,12.833c-0.101,0.357,0.192,0.838,0.603,0.791
				c5.31-0.61,10.618-1.219,15.928-1.829c0.791-0.091,0.8-1.342,0-1.25c-5.31,0.61-10.618,1.219-15.928,1.829
				c0.201,0.264,0.401,0.527,0.603,0.791c1.199-4.277,2.399-8.555,3.599-12.833C121.324,112.211,120.118,111.881,119.901,112.656
				L119.901,112.656z"/>
		</g>
	</g>
	<g>
		<g>
			<path d="M116.365,125.97c2.191,3.791,4.383,7.582,6.574,11.373c0.403,0.697,1.483,0.068,1.08-0.631
				c-2.191-3.791-4.383-7.582-6.574-11.373C117.042,124.642,115.961,125.271,116.365,125.97L116.365,125.97z"/>
		</g>
	</g>
	<g>
		<g>
			<path d="M157.772,83.946c1.418,3.634,2.835,7.267,4.253,10.9c0.664,1.702-2.051,8.147-2.693,10.583
				c-0.206,0.78,1,1.111,1.205,0.332c0.505-1.911,1.009-3.823,1.513-5.734c0.288-1.09,1.731-4.102,1.292-5.228
				c-1.455-3.729-2.909-7.457-4.364-11.186C158.688,82.872,157.478,83.194,157.772,83.946L157.772,83.946z"/>
		</g>
	</g>
	<g>
		<g>
			<path d="M150.189,95.313c7.577,0.168,14.532,0.611,22.003,1.849c0.788,0.131,1.126-1.074,0.332-1.205
				c-7.601-1.259-14.623-1.723-22.335-1.894C149.382,94.045,149.384,95.295,150.189,95.313L150.189,95.313z"/>
		</g>
	</g>
</g>
<g id="Capa_1">
</g>
</svg>
