<?xml version="1.0" encoding="utf-8"?>
<!-- Generator: Adobe Illustrator 16.0.3, SVG Export Plug-In . SVG Version: 6.00 Build 0)  -->
<!DOCTYPE svg PUBLIC "-//W3C//DTD SVG 1.1//EN" "http://www.w3.org/Graphics/SVG/1.1/DTD/svg11.dtd">
<svg version="1.1" xmlns="http://www.w3.org/2000/svg" xmlns:xlink="http://www.w3.org/1999/xlink" x="0px" y="0px"
	 width="60.667px" height="62.927px" viewBox="0 0 60.667 62.927" enable-background="new 0 0 60.667 62.927" xml:space="preserve">
<g id="Capa_3">
	<path fill="#3E0D0B" d="M43.842,47.545L22.583,57.573L22.5,62.656l32.917-17.5l1-27.198C50.609,18.312,50.219,44.021,43.842,47.545
		z"/>
	<polyline fill="#3E0D0B" points="22.583,57.573 6.25,39.573 6.25,43.823 22.5,62.927 	"/>
</g>
<g id="Capa_4">
	<path fill="#701B1C" d="M22.5,57.481L6.25,39.396l1.072-1.208l15.459,16.718l19.322-9.384c8.365-4.69,6.188-27.26,13.334-28.272
		l0.844,0.613c-5.947,0.959-6.219,26.688-12.187,29.407L22.5,57.481z"/>
</g>
<g id="Capa_5">
	<path fill="#F57870" d="M30.839,11.49"/>
	<line fill="#F57870" x1="6.839" y1="23.49" x2="7.996" y2="38.345"/>
	<path fill="#F57870" d="M50.507,15.237"/>
	<path fill="#F57870" d="M28.768,10.206"/>
	<path fill="#F57870" d="M26.453,5.146"/>
	<path fill="#D53C38" d="M52.418,23.646"/>
	<path fill="#D53C38" d="M7.417,38.146l15.375,16.813l19.156-9.281c9.062-5.438,5.669-26.277,13.368-28.426"/>
	<path fill="#D53C38" d="M22.781,55.063"/>
	<path fill="#D53C38" d="M55.074,17.326"/>
	<path fill="#D53C38" d="M22.781,55.063"/>
	<path fill="#D53C38" d="M8.711,8.302"/>
	<path fill="#D53C38" d="M17.436,49.216"/>
	<path fill="#D53C38" d="M14.104,45.573"/>
	<path fill="#D53C38" d="M10.144,41.243"/>
	<path fill="#D53C38" d="M55.316,17.25c0,0-27.793-11.386-32.777-13.636S11.586,5.989,8.711,8.302S6.25,23.396,6.25,23.396
		l1.167,14.75"/>
	<path fill="#D53C38" d="M17.734,3.232"/>
	<path fill="#D53C38" d="M43.07,44.966"/>
	<path fill="#D53C38" d="M6.24,22.833"/>
	<path fill="#D53C38" d="M49.918,15.143"/>
	<path fill="#D53C38" d="M32.547,7.854"/>
	<path fill="#D53C38" d="M25.863,5.052"/>
	<path fill="#D53C38" d="M30.45,11.49"/>
	<line fill="#D53C38" x1="6.45" y1="23.49" x2="7.606" y2="38.345"/>
	<path fill="#D53C38" d="M50.117,15.237"/>
	<path fill="#D53C38" d="M26.063,5.146"/>
</g>
<g id="Capa_6">
	<path fill="#E58383" d="M13.185,10.087c0,0-0.939,3.236,12.001,3.906C38.125,14.663,16.083-1.654,13.185,10.087z"/>
</g>
<g id="Capa_2">
	<path fill="none" stroke="#000000" stroke-width="0.75" stroke-miterlimit="10" d="M52.417,23.489"/>
	<polyline fill="none" stroke="#000000" stroke-width="0.75" stroke-miterlimit="10" points="22.5,62.656 6.25,43.823 6.25,39.573 
		22.583,57.573 	"/>
	<path fill="none" stroke="#000000" stroke-width="0.75" stroke-miterlimit="10" d="M56.417,18.073"/>
	<path fill="none" stroke="#000000" stroke-width="0.75" stroke-miterlimit="10" d="M6.25,39.396l1.156-1.302l15.375,16.813
		l19.156-9.281c9.063-5.438,5.8-26.226,13.5-28.375l0.986,0.613"/>
	<polyline fill="none" stroke="#000000" stroke-width="0.75" stroke-miterlimit="10" points="22.781,54.907 22.583,57.573 
		22.5,62.656 	"/>
	<path fill="none" stroke="#000000" stroke-width="0.75" stroke-miterlimit="10" d="M8.813,8.302l15.063,11.25
		c0,0-3.516,12.556-1.094,35.355c0,0,11.531-15.333,16.469-16.813c0,0,11.266-21.62,15.945-20.769"/>
	<path fill="none" stroke="#000000" stroke-width="0.75" stroke-miterlimit="10" d="M17.435,49.06
		c-2.003-11.992,2.795-32.231,2.795-32.231s4.877-6.222,7.949-6.875"/>
	<path fill="none" stroke="#000000" stroke-width="0.75" stroke-miterlimit="10" d="M14.103,45.417
		c-0.46-15.51,3.523-30.532,3.523-30.532s3.389-6.949,6.975-7.547"/>
	<path fill="none" stroke="#000000" stroke-width="0.75" stroke-miterlimit="10" d="M10.143,41.087
		c0.018-19.84,3.497-29.18,3.497-29.18s3.909-6.604,7.385-6.854"/>
	<path fill="none" stroke="#000000" stroke-width="0.75" stroke-miterlimit="10" d="M17.835,3.232c0,0,14.228,7.467,16.665,14.018
		c0,0,17.629,1.149,20.816-0.049c0,0-27.691-11.337-32.676-13.587S11.688,5.989,8.813,8.302S6.25,23.239,6.25,23.239l1.156,14.855"
		/>
	<path fill="none" stroke="#000000" stroke-width="0.75" stroke-miterlimit="10" d="M23.875,19.552c0,0,6.25-4.125,10.625-1.938"/>
	<path fill="none" stroke="#000000" stroke-width="0.75" stroke-miterlimit="10" d="M39.25,38.094l0.313,6.458
		c0,0,1.201,0.703,3.507,0.258"/>
	<path fill="none" stroke="#000000" stroke-width="0.75" stroke-miterlimit="10" d="M39.563,44.552c0,0-9.356,1.215-11.384,3.649"/>
	<path fill="none" stroke="#000000" stroke-width="0.75" stroke-miterlimit="10" d="M40.335,36.079L34.5,17.25
		c0,0-2.883,13.859-12.535,19.236C20.059,37.549,6.24,22.677,6.24,22.677"/>
	<path fill="none" stroke="#000000" stroke-width="0.75" stroke-miterlimit="10" d="M22.185,45.129"/>
	<path fill="none" stroke="#000000" stroke-width="0.75" stroke-miterlimit="10" d="M28.741,30.252l6.911,9.97
		c0,0-9.771,0.053-13.571,5.582"/>
	<path fill="none" stroke="#000000" stroke-width="0.75" stroke-miterlimit="10" d="M28.178,9.955c0,0,16.22,2.768,21.74,5.032"/>
	<path fill="none" stroke="#000000" stroke-width="0.75" stroke-miterlimit="10" d="M24.601,7.337c0,0,5.598-0.501,8.046,0.517"/>
	<path fill="none" stroke="#000000" stroke-width="0.75" stroke-miterlimit="10" d="M21.024,5.053c0,0,2.218-0.751,4.94-0.001"/>
	<path fill="none" stroke="#000000" stroke-width="0.75" stroke-miterlimit="10" d="M43.946,47.357L22.688,57.385l-0.083,5.083
		l32.923-17.709l0.815-26.885C50.529,18.438,50.323,43.833,43.946,47.357z"/>
</g>
</svg>
